<?xml version="1.0" encoding="UTF-8" standalone="no"?>
<!-- Created with Inkscape (http://www.inkscape.org/) -->

<svg
   width="250mm"
   height="60mm"
   viewBox="0 0 250 60"
   version="1.1"
   id="svg4419"
   inkscape:version="1.2.1 (9c6d41e410, 2022-07-14)"
   sodipodi:docname="text_logo_white.svg"
   inkscape:export-filename="Lavafast_Text_Logo.png"
   inkscape:export-xdpi="25.4"
   inkscape:export-ydpi="25.4"
   xmlns:inkscape="http://www.inkscape.org/namespaces/inkscape"
   xmlns:sodipodi="http://sodipodi.sourceforge.net/DTD/sodipodi-0.dtd"
   xmlns="http://www.w3.org/2000/svg"
   xmlns:svg="http://www.w3.org/2000/svg">
  <sodipodi:namedview
     id="namedview4421"
     pagecolor="#ffffff"
     bordercolor="#000000"
     borderopacity="0.25"
     inkscape:showpageshadow="2"
     inkscape:pageopacity="0.0"
     inkscape:pagecheckerboard="0"
     inkscape:deskcolor="#d1d1d1"
     inkscape:document-units="mm"
     showgrid="false"
     inkscape:zoom="0.71624579"
     inkscape:cx="307.15713"
     inkscape:cy="499.13033"
     inkscape:window-width="1920"
     inkscape:window-height="991"
     inkscape:window-x="-9"
     inkscape:window-y="-9"
     inkscape:window-maximized="1"
     inkscape:current-layer="g318" />
  <defs
     id="defs4416">
    <clipPath
       clipPathUnits="userSpaceOnUse"
       id="clipPath322">
      <path
         d="M 0,612.288 H 858.898 V 0 H 0 Z"
         id="path320" />
    </clipPath>
    <clipPath
       clipPathUnits="userSpaceOnUse"
       id="clipPath10986">
      <path
         d="M 0,612.288 H 858.898 V 0 H 0 Z"
         id="path10984" />
    </clipPath>
  </defs>
  <g
     inkscape:label="Layer 1"
     inkscape:groupmode="layer"
     id="layer1">
    <g
       id="g2616"
       transform="translate(0,-96.304283)">
      <g
         id="g316"
         transform="matrix(1.0314787,0,0,-1.0314787,-290.60428,419.36023)">
        <g
           id="g318"
           clip-path="url(#clipPath322)">
          <g
             id="g1432"
             transform="translate(490.876,288.2956)">
            <path
               d="M 0,0 C 0.059,0.299 0.115,0.6 0.162,0.907 -0.512,0.982 -1.185,0.923 -1.868,0.948 -1.929,0.669 -1.987,0.392 -2.048,0.111 -1.352,-0.042 -0.674,-0.004 0,0"
               style="fill:#48bdd6;fill-opacity:1;fill-rule:nonzero;stroke:none"
               id="path1434" />
          </g>
          <g
             id="g1436"
             transform="translate(508.9844,289.2224)">
            <path
               d="m 0,0 h -11.611 c -0.178,-0.38 -0.219,-0.775 -0.303,-1.154 -0.826,-3.703 -1.641,-7.408 -2.458,-11.112 -0.161,-0.726 -0.245,-1.469 -0.214,-2.204 0.035,-0.838 0.374,-1.438 0.934,-1.822 -0.102,0.259 -0.165,0.55 -0.179,0.88 -0.031,0.734 0.053,1.477 0.214,2.204 0.817,3.703 1.633,7.408 2.458,11.11 0.085,0.38 0.124,0.776 0.303,1.155 H -0.713 C -0.483,-0.627 -0.248,-0.312 0,0"
               style="fill:#48bdd6;fill-opacity:1;fill-rule:nonzero;stroke:none"
               id="path1438" />
          </g>
          <g
             id="g1440"
             transform="translate(507.2227,296.1667)">
            <path
               d="m 0,0 c -0.006,-0.002 -0.01,-0.001 -0.015,-0.003 0.508,-0.62 1.006,-1.229 1.507,-1.842 0.004,0 0.012,0 0.016,10e-4 C 1.001,-1.225 0.501,-0.613 0,0"
               style="fill:#48bdd6;fill-opacity:1;fill-rule:nonzero;stroke:none"
               id="path1442" />
          </g>
          <g
             id="g1444"
             transform="translate(498.4687,294.3845)">
            <path
               d="M 0,0 C 0.076,-0.022 0.43,-0.042 0.959,-0.059 1.493,2.261 2.053,4.579 2.521,6.973 2.17,6.844 1.829,6.719 1.48,6.591 1.012,4.365 0.494,2.18 0,0"
               style="fill:#48bdd6;fill-opacity:1;fill-rule:nonzero;stroke:none"
               id="path1446" />
          </g>
          <g
             id="g1448"
             transform="translate(501.873,272.4431)">
            <path
               d="m 0,0 c 0.044,-1.395 0.046,-3.594 -0.02,-4.319 -0.089,-0.162 -0.262,-0.188 -0.417,-0.232 -1.108,-0.318 -2.239,-0.511 -3.388,-0.612 -1.164,-0.102 -2.329,-0.192 -3.498,-0.168 -0.991,0.019 -1.971,0.152 -2.882,0.572 -0.765,0.353 -1.406,0.798 -1.936,1.326 0.624,-0.961 1.51,-1.723 2.691,-2.268 0.911,-0.421 1.89,-0.553 2.882,-0.573 1.169,-0.024 2.334,0.067 3.498,0.169 1.148,0.1 2.28,0.293 3.388,0.612 0.155,0.044 0.328,0.068 0.417,0.23 0.094,1.047 0.049,5.158 -0.062,5.5 C 0.448,0.157 0.224,0.08 0,0"
               style="fill:#48bdd6;fill-opacity:1;fill-rule:nonzero;stroke:none"
               id="path1450" />
          </g>
          <g
             id="g1452"
             transform="translate(517.4316,291.907)">
            <path
               d="m 0,0 c -1.08,-0.614 -2.161,-1.228 -3.239,-1.847 -1.825,-1.05 -3.65,-2.103 -5.475,-3.156 -0.504,-0.709 -0.989,-1.424 -1.509,-2.132 0.228,-0.034 0.323,0.071 0.431,0.133 2.437,1.403 4.871,2.811 7.308,4.212 1.254,0.721 2.511,1.433 3.767,2.149 v 0.099 C 0.855,-0.361 0.428,-0.18 0,0"
               style="fill:#48bdd6;fill-opacity:1;fill-rule:nonzero;stroke:none"
               id="path1454" />
          </g>
          <g
             id="g1456"
             transform="translate(388.7148,273.1452)">
            <path
               d="m 0,0 c -0.225,0.445 -0.358,0.95 -0.418,1.487 -0.109,0.986 -0.014,1.969 0.074,2.954 0.137,1.533 0.48,3.014 1.026,4.449 0.535,1.406 1.238,2.723 2.192,3.894 1.223,1.503 2.773,2.478 4.709,2.713 1.175,0.144 2.344,0.063 3.483,-0.203 0.021,0.126 0.038,0.252 0.059,0.378 0.019,0.11 0.041,0.228 -0.035,0.361 C 9.71,16.47 8.273,16.615 6.828,16.439 4.893,16.204 3.342,15.229 2.119,13.728 1.165,12.556 0.462,11.238 -0.073,9.832 -0.619,8.398 -0.961,6.916 -1.099,5.384 -1.187,4.399 -1.282,3.415 -1.173,2.431 -1.064,1.457 -0.727,0.585 0,0"
               style="fill:#48bdd6;fill-opacity:1;fill-rule:nonzero;stroke:none"
               id="path1458" />
          </g>
          <g
             id="g1460"
             transform="translate(397.9321,270.2185)">
            <path
               d="m 0,0 c -0.5,-0.432 -0.963,-0.849 -1.479,-1.204 -1.596,-1.1 -3.366,-1.674 -5.29,-1.843 -1.475,-0.129 -2.923,-0.028 -4.345,0.377 -1.449,0.414 -2.619,1.127 -3.539,2.107 0.994,-1.484 2.414,-2.513 4.294,-3.049 1.421,-0.407 2.87,-0.506 4.345,-0.377 1.924,0.169 3.694,0.742 5.29,1.843 0.432,0.296 0.829,0.641 1.239,0.998 C 0.316,-0.789 0.153,-0.41 0,0"
               style="fill:#48bdd6;fill-opacity:1;fill-rule:nonzero;stroke:none"
               id="path1462" />
          </g>
          <g
             id="g1464"
             transform="translate(407.5371,292.6247)">
            <path
               d="M 0,0 C -0.264,0.106 -0.531,0.193 -0.798,0.277 -0.812,0.222 -0.825,0.166 -0.834,0.11 c -0.455,-2.769 -1.011,-5.52 -1.538,-8.276 -0.468,-2.451 -0.941,-4.901 -1.395,-7.355 -0.162,-0.875 -0.177,-1.765 -0.173,-2.653 0.005,-1.201 0.03,-2.403 0.155,-3.598 0.098,-0.948 0.232,-1.891 0.525,-2.803 0.03,-0.095 0.072,-0.184 0.047,-0.315 -0.304,-0.07 -0.621,-0.122 -0.946,-0.122 -0.856,-0.001 -1.712,0.013 -2.568,-0.003 -0.653,-0.011 -1.184,0.189 -1.625,0.549 0.043,-0.079 0.079,-0.163 0.126,-0.239 0.52,-0.837 1.254,-1.271 2.254,-1.252 0.856,0.016 1.712,0.002 2.568,0.003 0.325,0 0.642,0.052 0.946,0.122 0.025,0.131 -0.017,0.22 -0.047,0.314 -0.293,0.912 -0.427,1.856 -0.525,2.803 -0.125,1.195 -0.15,2.397 -0.156,3.598 -0.003,0.888 0.012,1.779 0.174,2.653 0.454,2.454 0.927,4.904 1.395,7.356 0.527,2.755 1.083,5.506 1.537,8.276 C -0.038,-0.576 0.081,-0.326 0,0"
               style="fill:#48bdd6;fill-opacity:1;fill-rule:nonzero;stroke:none"
               id="path1466" />
          </g>
          <g
             id="g1468"
             transform="translate(439.7822,273.1462)">
            <path
               d="m 0,0 c -0.181,0.358 -0.317,0.746 -0.405,1.165 -0.129,0.619 -0.119,1.245 -0.085,1.867 0.091,1.645 0.286,3.275 0.792,4.852 0.618,1.929 1.488,3.723 2.85,5.248 1.173,1.311 2.623,2.139 4.374,2.361 1.174,0.149 2.35,0.065 3.507,-0.202 0.032,0.235 0.065,0.47 0.1,0.704 C 10.86,16.12 10.601,16.16 10.348,16.221 9.168,16.5 7.969,16.587 6.771,16.436 5.021,16.215 3.57,15.386 2.397,14.074 1.035,12.551 0.165,10.755 -0.453,8.826 -0.959,7.25 -1.154,5.619 -1.245,3.976 -1.279,3.354 -1.289,2.728 -1.16,2.107 -0.984,1.265 -0.646,0.519 0,0"
               style="fill:#48bdd6;fill-opacity:1;fill-rule:nonzero;stroke:none"
               id="path1470" />
          </g>
          <g
             id="g1472"
             transform="translate(457.7793,292.9001)">
            <path
               d="m 0,0 c -0.207,-1.158 -0.406,-2.296 -0.618,-3.425 -0.439,-2.341 -0.889,-4.679 -1.332,-7.018 -0.346,-1.825 -0.695,-3.648 -1.03,-5.473 -0.101,-0.55 -0.146,-1.107 -0.161,-1.668 -0.047,-1.895 0.032,-3.784 0.303,-5.661 0.094,-0.649 0.249,-1.286 0.471,-1.903 -0.199,-0.122 -0.412,-0.11 -0.595,-0.114 -1.217,-0.021 -2.436,-0.099 -3.649,0.047 -0.352,0.043 -0.658,0.195 -0.922,0.415 0.142,-0.246 0.304,-0.479 0.496,-0.694 0.317,-0.352 0.708,-0.606 1.181,-0.663 1.212,-0.147 2.432,-0.07 3.649,-0.047 0.183,0.003 0.396,-0.009 0.595,0.112 -0.222,0.618 -0.376,1.256 -0.47,1.905 -0.272,1.876 -0.352,3.765 -0.303,5.661 0.014,0.559 0.059,1.118 0.159,1.667 0.336,1.826 0.685,3.649 1.031,5.472 0.443,2.34 0.893,4.679 1.332,7.019 0.251,1.338 0.482,2.679 0.731,4.063 C 0.58,-0.188 0.29,-0.092 0,0"
               style="fill:#48bdd6;fill-opacity:1;fill-rule:nonzero;stroke:none"
               id="path1474" />
          </g>
          <g
             id="g1476"
             transform="translate(449.1729,269.6931)">
            <path
               d="M 0,0 C -0.06,0.15 -0.123,0.299 -0.177,0.43 -0.356,0.472 -0.414,0.349 -0.492,0.277 -2.117,-1.21 -4.015,-2.104 -6.197,-2.431 c -1.702,-0.254 -3.387,-0.202 -5.036,0.257 -1.466,0.407 -2.651,1.1 -3.571,2.052 0.991,-1.443 2.416,-2.464 4.325,-2.995 1.65,-0.458 3.334,-0.51 5.037,-0.256 2.181,0.325 4.08,1.221 5.705,2.708 0.013,0.013 0.027,0.028 0.041,0.044 C 0.19,-0.422 0.086,-0.217 0,0"
               style="fill:#48bdd6;fill-opacity:1;fill-rule:nonzero;stroke:none"
               id="path1478" />
          </g>
          <g
             id="g1480"
             transform="translate(339.873,269.6989)">
            <path
               d="m 0,0 c -0.062,0.149 -0.128,0.298 -0.19,0.442 -0.193,-0.005 -0.273,-0.146 -0.376,-0.24 -1.698,-1.546 -3.705,-2.417 -5.97,-2.695 -1.716,-0.211 -3.422,-0.115 -5.071,0.426 -1.331,0.436 -2.406,1.116 -3.253,2.008 0.922,-1.371 2.243,-2.373 4.007,-2.951 1.65,-0.541 3.356,-0.637 5.072,-0.426 2.265,0.279 4.272,1.15 5.97,2.696 0.038,0.034 0.075,0.074 0.113,0.113 C 0.189,-0.426 0.09,-0.215 0,0"
               style="fill:#48bdd6;fill-opacity:1;fill-rule:nonzero;stroke:none"
               id="path1482" />
          </g>
          <g
             id="g1484"
             transform="translate(330.4873,273.1325)">
            <path
               d="m 0,0 c -0.176,0.346 -0.313,0.719 -0.4,1.123 -0.13,0.604 -0.116,1.211 -0.093,1.818 0.091,2.455 0.539,4.832 1.608,7.063 0.666,1.389 1.461,2.689 2.623,3.731 1.271,1.14 2.75,1.767 4.466,1.826 0.957,0.032 1.898,-0.052 2.829,-0.257 0.042,0.237 0.079,0.477 0.07,0.731 -1.2,0.361 -2.414,0.51 -3.654,0.468 C 5.733,16.444 4.254,15.818 2.983,14.678 1.821,13.636 1.026,12.335 0.36,10.947 -0.709,8.716 -1.157,6.339 -1.248,3.884 -1.271,3.277 -1.285,2.669 -1.155,2.066 -0.977,1.236 -0.634,0.503 0,0"
               style="fill:#48bdd6;fill-opacity:1;fill-rule:nonzero;stroke:none"
               id="path1486" />
          </g>
          <g
             id="g1488"
             transform="translate(348.8682,292.781)">
            <path
               d="m 0,0 c -0.131,0.046 -0.265,0.081 -0.397,0.122 -0.123,-0.747 -0.241,-1.496 -0.38,-2.242 -0.442,-2.357 -0.9,-4.709 -1.348,-7.065 -0.414,-2.177 -0.824,-4.355 -1.231,-6.534 -0.1,-0.533 -0.155,-1.072 -0.166,-1.616 -0.032,-1.449 -0.02,-2.897 0.116,-4.341 0.107,-1.139 0.261,-2.275 0.666,-3.39 -0.396,-0.039 -0.747,-0.116 -1.11,-0.104 -0.986,0.03 -1.974,-0.044 -2.96,0.046 -0.45,0.042 -0.817,0.217 -1.134,0.481 0.112,-0.201 0.239,-0.395 0.389,-0.576 0.391,-0.475 0.866,-0.79 1.5,-0.847 0.986,-0.091 1.974,-0.016 2.96,-0.047 0.363,-0.011 0.714,0.065 1.11,0.103 -0.405,1.115 -0.559,2.251 -0.666,3.391 -0.136,1.443 -0.148,2.892 -0.117,4.342 0.012,0.544 0.067,1.082 0.166,1.616 0.408,2.179 0.818,4.356 1.232,6.534 0.448,2.355 0.906,4.708 1.348,7.064 0.177,0.949 0.323,1.904 0.482,2.85 C 0.313,-0.092 0.153,-0.054 0,0"
               style="fill:#48bdd6;fill-opacity:1;fill-rule:nonzero;stroke:none"
               id="path1490" />
          </g>
          <g
             id="g1492"
             transform="translate(429.5947,289.2448)">
            <path
               d="m 0,0 c -1.021,-0.018 -2.037,-0.006 -3.052,-0.008 -1.019,-0.002 -2.038,-10e-4 -3.045,-10e-4 -0.234,-0.306 -0.2,-0.655 -0.255,-0.968 -0.486,-2.765 -0.945,-5.535 -1.421,-8.302 -0.413,-2.395 -0.84,-4.787 -1.254,-7.183 -0.406,-2.346 -0.749,-4.704 -1.217,-7.037 -0.798,-3.991 -3.172,-6.672 -6.996,-8.043 -0.876,-0.314 -1.795,-0.47 -2.758,-0.483 0.102,-0.317 0.207,-0.633 0.325,-0.949 1.122,-0.036 2.181,0.128 3.188,0.489 3.824,1.371 6.197,4.052 6.996,8.043 0.468,2.334 0.811,4.692 1.217,7.038 0.414,2.394 0.841,4.787 1.253,7.182 0.477,2.767 0.936,5.537 1.422,8.302 0.055,0.314 0.021,0.662 0.255,0.969 1.007,0 2.026,-0.002 3.045,0 1.015,0.003 2.031,-0.01 3.052,0.009 0.286,1.697 0.4,3.346 0.599,5.046 H 0.498 C 0.354,2.733 0.232,1.382 0,0"
               style="fill:#48bdd6;fill-opacity:1;fill-rule:nonzero;stroke:none"
               id="path1494" />
          </g>
          <g
             id="g1496"
             transform="translate(416.7271,288.2976)">
            <path
               d="M 0,0 C 0.038,0.231 0.078,0.463 0.116,0.695 0.126,0.755 0.108,0.82 0.102,0.907 -0.798,0.987 -1.696,0.908 -2.616,0.945 -2.663,0.657 -2.71,0.371 -2.758,0.082 -1.817,-0.06 -0.906,0.006 0,0"
               style="fill:#48bdd6;fill-opacity:1;fill-rule:nonzero;stroke:none"
               id="path1498" />
          </g>
          <g
             id="g1500"
             transform="translate(433.583,303.5866)">
            <path
               d="m 0,0 c -0.35,-1.45 -0.655,-2.923 -1.093,-4.363 -0.248,0.002 -0.417,0.114 -0.593,0.19 -0.745,0.32 -1.517,0.552 -2.319,0.646 -1.372,0.161 -2.525,-0.286 -3.434,-1.336 -0.478,-0.553 -0.841,-1.177 -1.128,-1.845 -0.344,-0.802 -0.599,-1.632 -0.811,-2.545 0.336,-0.038 0.668,-0.046 0.998,-0.046 0.162,0.569 0.341,1.12 0.568,1.648 0.287,0.669 0.649,1.293 1.127,1.845 0.91,1.051 2.063,1.497 3.435,1.336 0.802,-0.094 1.574,-0.325 2.319,-0.646 0.176,-0.075 0.345,-0.188 0.593,-0.19 0.484,1.596 0.806,3.232 1.205,4.832 C 0.637,-0.301 0.333,-0.143 0,0"
               style="fill:#48bdd6;fill-opacity:1;fill-rule:nonzero;stroke:none"
               id="path1502" />
          </g>
          <g
             id="g1504"
             transform="translate(319.4199,272.3894)">
            <path
               d="m 0,0 h -0.276 c -0.252,-1.566 -0.51,-3.131 -0.828,-4.658 -0.048,-0.041 -0.06,-0.054 -0.073,-0.063 -0.013,-0.008 -0.029,-0.018 -0.044,-0.021 -0.08,-0.013 -0.161,-0.032 -0.242,-0.032 -7.247,-0.002 -14.495,-0.002 -21.742,-0.001 -0.05,-0.276 -0.101,-0.551 -0.151,-0.827 0.199,-0.039 0.357,-0.072 0.516,-0.1 0.064,-0.012 0.131,-0.017 0.196,-0.017 7.312,0 14.623,0 21.936,0.001 0.081,0 0.162,0.021 0.242,0.033 0.015,0.002 0.03,0.012 0.044,0.022 0.013,0.009 0.025,0.02 0.073,0.061 0.376,1.808 0.671,3.665 0.969,5.519 C 0.394,0.043 0.192,0 0,0"
               style="fill:#48bdd6;fill-opacity:1;fill-rule:nonzero;stroke:none"
               id="path1506" />
          </g>
          <g
             id="g1508"
             transform="translate(302.9233,273.448)">
            <path
               d="m 0,0 c 0.261,-0.164 0.498,-0.111 0.723,-0.111 h 0.184 c 1.781,9.897 3.66,19.793 5.41,29.751 H 5.392 C 3.64,19.722 1.77,9.861 0,0"
               style="fill:#48bdd6;fill-opacity:1;fill-rule:nonzero;stroke:none"
               id="path1510" />
          </g>
          <g
             id="g1512"
             transform="translate(480.123,286.9831)">
            <path
               d="M 0,0 C -0.296,0.116 -0.468,0.32 -0.67,0.48 -1.631,1.239 -2.643,1.913 -3.82,2.283 -5.279,2.741 -6.71,2.686 -8.066,1.928 -8.611,1.624 -9.03,1.197 -9.197,0.56 c -0.177,-0.676 -0.027,-1.273 0.402,-1.8 0.143,-0.175 0.301,-0.332 0.466,-0.479 -0.192,0.407 -0.24,0.851 -0.113,1.336 0.167,0.638 0.586,1.065 1.13,1.368 1.357,0.757 2.788,0.814 4.247,0.356 1.177,-0.37 2.189,-1.045 3.15,-1.804 0.202,-0.159 0.374,-0.364 0.67,-0.479 C 1.723,0.942 2.679,2.823 3.557,4.724 3.476,4.843 3.38,4.866 3.289,4.905 3.053,5.007 2.812,5.096 2.573,5.19 1.757,3.453 0.887,1.728 0,0"
               style="fill:#48bdd6;fill-opacity:1;fill-rule:nonzero;stroke:none"
               id="path1514" />
          </g>
          <g
             id="g1516"
             transform="translate(479.9873,279.8073)">
            <path
               d="m 0,0 c 0.339,-0.517 0.617,-1.078 0.783,-1.722 0.193,-0.745 0.176,-1.502 0.142,-2.257 -0.084,-1.812 -0.671,-3.438 -1.854,-4.835 -1.02,-1.207 -2.291,-2.069 -3.722,-2.702 -1.549,-0.684 -3.182,-0.998 -4.87,-1.126 -3,-0.226 -5.814,0.406 -8.493,1.723 -0.106,0.053 -0.212,0.116 -0.316,0.175 -0.074,-0.128 -0.147,-0.252 -0.22,-0.38 0.467,-0.269 0.866,-0.528 1.291,-0.737 2.679,-1.318 5.492,-1.95 8.493,-1.723 1.688,0.127 3.321,0.441 4.87,1.126 1.431,0.633 2.702,1.494 3.722,2.701 1.183,1.398 1.77,3.023 1.854,4.836 0.034,0.754 0.051,1.511 -0.142,2.257 C 1.264,-1.602 0.722,-0.734 0,0"
               style="fill:#48bdd6;fill-opacity:1;fill-rule:nonzero;stroke:none"
               id="path1518" />
          </g>
          <g
             id="g1520"
             transform="translate(466.0664,281.989)">
            <path
               d="M 0,0 C 0.071,-0.105 0.126,-0.217 0.206,-0.319 0.854,-1.152 1.653,-1.802 2.57,-2.306 3.983,-3.08 5.407,-3.836 6.827,-4.6 7.318,-4.863 7.777,-5.173 8.191,-5.544 8.093,-5.293 7.934,-5.069 7.744,-4.865 7.269,-4.351 6.684,-3.985 6.072,-3.656 4.652,-2.894 3.229,-2.138 1.815,-1.362 1.142,-0.993 0.533,-0.543 0,0"
               style="fill:#48bdd6;fill-opacity:1;fill-rule:nonzero;stroke:none"
               id="path1522" />
          </g>
          <g
             id="g1524"
             transform="translate(381.6426,293.3308)">
            <path
               d="m 0,0 h -1.239 c -3.174,-5.137 -6.432,-10.221 -9.653,-15.329 -2.176,-3.451 -4.358,-6.9 -6.538,-10.35 -0.105,-0.167 -0.216,-0.329 -0.34,-0.516 h -1.827 c 0.094,-0.315 0.19,-0.628 0.284,-0.943 h 2.298 c 0.124,0.187 0.235,0.35 0.34,0.517 2.18,3.449 4.362,6.898 6.538,10.35 3.352,5.315 6.749,10.602 10.044,15.954 C -0.039,-0.229 0.081,-0.152 0,0"
               style="fill:#48bdd6;fill-opacity:1;fill-rule:nonzero;stroke:none"
               id="path1526" />
          </g>
          <g
             id="g1528"
             transform="translate(364.3618,278.2956)">
            <path
               d="M 0,0 C 0.034,-0.008 0.068,-0.017 0.102,-0.025 0.193,0.129 0.281,0.284 0.372,0.438 -0.975,5.3 -2.322,10.16 -3.67,15.027 H -4.164 C -2.775,10.015 -1.387,5.007 0,0"
               style="fill:#48bdd6;fill-opacity:1;fill-rule:nonzero;stroke:none"
               id="path1530" />
          </g>
          <g
             id="g1532"
             transform="translate(300.9614,305.03)"
             style="fill:#ffffff">
            <path
               d="M 0,0 H 6.524 C 4.726,-10.236 2.788,-20.407 0.962,-30.582 c 0.261,-0.163 0.497,-0.111 0.723,-0.111 5.006,-0.003 10.012,-0.002 15.019,-0.004 0.192,-0.001 0.394,0.042 0.62,-0.084 -0.299,-1.854 -0.594,-3.711 -0.969,-5.518 -0.048,-0.041 -0.06,-0.054 -0.074,-0.062 -0.013,-0.009 -0.028,-0.019 -0.043,-0.022 -0.081,-0.013 -0.162,-0.032 -0.243,-0.032 -7.312,-0.002 -14.623,-0.002 -21.935,-10e-4 -0.066,0 -0.132,0.005 -0.197,0.016 -0.158,0.028 -0.316,0.061 -0.515,0.1 C -4.435,-24.196 -2.22,-12.111 0,0"
               style="fill:#ffffff;fill-opacity:1;fill-rule:nonzero;stroke:none"
               id="path1534" />
          </g>
          <g
             id="g1536"
             transform="translate(340.5903,290.1677)"
             style="fill:#ffffff">
            <path
               d="M 0,0 C -1.2,0.361 -2.414,0.51 -3.654,0.468 -5.37,0.41 -6.849,-0.217 -8.121,-1.357 c -1.161,-1.041 -1.956,-2.343 -2.622,-3.731 -1.069,-2.231 -1.517,-4.608 -1.608,-7.063 -0.023,-0.607 -0.037,-1.215 0.093,-1.818 0.22,-1.027 0.668,-1.925 1.642,-2.393 1.704,-0.821 3.394,-0.818 4.993,0.306 0.793,0.559 1.394,1.298 1.92,2.102 0.8,1.224 1.285,2.584 1.696,3.973 0.854,2.883 1.447,5.823 1.86,8.8 C -0.094,-0.795 0.015,-0.413 0,0 M 6.983,4.343 C 6.824,3.396 6.678,2.441 6.5,1.493 6.059,-0.863 5.601,-3.216 5.153,-5.571 4.739,-7.749 4.329,-9.927 3.921,-12.105 c -0.099,-0.534 -0.154,-1.073 -0.166,-1.617 -0.031,-1.449 -0.019,-2.897 0.117,-4.34 0.107,-1.14 0.261,-2.276 0.666,-3.391 -0.396,-0.039 -0.747,-0.115 -1.11,-0.104 -0.987,0.032 -1.974,-0.044 -2.96,0.046 -0.635,0.059 -1.109,0.372 -1.5,0.848 -0.297,0.36 -0.506,0.768 -0.685,1.194 -0.063,0.15 -0.129,0.298 -0.191,0.443 -0.193,-0.005 -0.273,-0.147 -0.375,-0.241 -1.698,-1.545 -3.705,-2.417 -5.97,-2.695 -1.716,-0.211 -3.422,-0.115 -5.072,0.426 -2.757,0.904 -4.443,2.83 -5.188,5.607 -0.192,0.716 -0.281,1.449 -0.302,2.193 -0.043,1.482 -0.016,2.963 0.217,4.429 0.502,3.155 1.665,6.035 3.593,8.595 1.557,2.068 3.423,3.773 5.771,4.907 1.295,0.627 2.657,1.031 4.082,1.243 1.704,0.254 3.41,0.204 5.122,0.12 C 0.956,5.509 1.939,5.448 2.919,5.327 4.143,5.176 5.354,4.966 6.522,4.556 6.676,4.502 6.836,4.464 6.983,4.343"
               style="fill:#ffffff;fill-opacity:1;fill-rule:nonzero;stroke:none"
               id="path1538" />
          </g>
          <g
             id="g1540"
             transform="translate(362.873,268.1355)"
             style="fill:#ffffff">
            <path
               d="m 0,0 h -2.299 c -2.689,9.04 -5.456,18.041 -8.109,27.13 h 6.471 c 1.477,-5.328 2.951,-10.649 4.426,-15.97 0.034,-0.008 0.068,-0.016 0.102,-0.025 1.564,2.652 3.095,5.324 4.647,7.983 1.558,2.669 3.103,5.346 4.656,8.021 h 7.12 C 17.096,26.985 16.976,26.908 16.922,26.82 13.627,21.47 10.229,16.183 6.877,10.867 4.701,7.415 2.52,3.967 0.34,0.517 0.235,0.351 0.124,0.187 0,0"
               style="fill:#ffffff;fill-opacity:1;fill-rule:nonzero;stroke:none"
               id="path1542" />
          </g>
          <g
             id="g1544"
             transform="translate(398.8052,290.1784)"
             style="fill:#ffffff">
            <path
               d="m 0,0 c -1.38,0.437 -2.817,0.583 -4.263,0.407 -1.935,-0.236 -3.486,-1.211 -4.708,-2.713 -0.954,-1.172 -1.657,-2.489 -2.193,-3.895 -0.545,-1.434 -0.888,-2.916 -1.025,-4.448 -0.089,-0.985 -0.184,-1.969 -0.074,-2.954 0.135,-1.204 0.608,-2.26 1.75,-2.799 1.708,-0.806 3.402,-0.77 4.989,0.369 0.732,0.526 1.294,1.212 1.794,1.952 0.866,1.282 1.365,2.725 1.804,4.189 0.545,1.824 0.94,3.683 1.31,5.55 0.262,1.321 0.428,2.655 0.651,3.981 C 0.054,-0.251 0.076,-0.133 0,0 M 6.977,4.39 C 7.058,4.062 6.939,3.813 6.897,3.557 6.443,0.787 5.887,-1.964 5.36,-4.72 4.892,-7.171 4.419,-9.621 3.965,-12.074 3.803,-12.949 3.788,-13.84 3.792,-14.728 c 0.005,-1.201 0.03,-2.403 0.155,-3.598 0.098,-0.947 0.232,-1.891 0.524,-2.803 0.031,-0.095 0.073,-0.183 0.048,-0.314 -0.304,-0.071 -0.621,-0.121 -0.946,-0.122 -0.856,-10e-4 -1.712,0.012 -2.568,-0.003 -1,-0.018 -1.734,0.416 -2.254,1.252 -0.259,0.416 -0.442,0.868 -0.624,1.356 -0.501,-0.432 -0.964,-0.849 -1.479,-1.203 -1.596,-1.101 -3.366,-1.675 -5.29,-1.843 -1.475,-0.13 -2.923,-0.029 -4.345,0.376 -2.593,0.74 -4.322,2.404 -5.247,4.929 -0.408,1.112 -0.541,2.27 -0.567,3.439 -0.048,2.131 0.181,4.235 0.766,6.289 1.116,3.916 3.234,7.173 6.453,9.681 1.918,1.494 4.108,2.373 6.518,2.724 1.672,0.243 3.346,0.199 5.023,0.12 C 0.962,5.505 1.962,5.442 2.958,5.318 4.327,5.147 5.681,4.911 6.977,4.39"
               style="fill:#ffffff;fill-opacity:1;fill-rule:nonzero;stroke:none"
               id="path1546" />
          </g>
          <g
             id="g1548"
             transform="translate(408.1665,258.2136)"
             style="fill:#ffffff">
            <path
               d="m 0,0 c -0.511,1.369 -0.825,2.749 -1.287,4.1 0.13,0.118 0.298,0.125 0.446,0.175 1.883,0.641 3.29,1.826 4.139,3.637 0.325,0.693 0.395,1.455 0.532,2.196 0.359,1.954 0.705,3.909 1.054,5.864 0.379,2.116 0.753,4.234 1.132,6.35 0.373,2.084 0.755,4.166 1.125,6.25 0.189,1.068 0.359,2.138 0.536,3.207 0.01,0.06 -0.008,0.125 -0.015,0.212 -1.19,0.106 -2.377,-0.068 -3.614,0.118 0.271,1.651 0.538,3.277 0.814,4.958 h 3.653 c 0.289,1.185 0.618,2.3 1.059,3.379 0.749,1.831 1.743,3.499 3.214,4.856 1.431,1.321 3.122,2.106 5.025,2.449 1.469,0.265 2.942,0.296 4.415,0.006 0.885,-0.173 1.768,-0.515 2.301,-0.915 -0.4,-1.6 -0.721,-3.237 -1.205,-4.832 -0.248,0.002 -0.417,0.114 -0.593,0.19 -0.745,0.321 -1.517,0.552 -2.319,0.646 -1.372,0.161 -2.525,-0.285 -3.435,-1.336 -0.478,-0.553 -0.841,-1.177 -1.128,-1.845 -0.344,-0.802 -0.599,-1.632 -0.811,-2.545 0.668,-0.075 1.318,-0.033 1.964,-0.04 0.675,-0.007 1.351,-10e-4 2.026,-10e-4 h 2 c -0.2,-1.7 -0.314,-3.35 -0.6,-5.048 -1.021,-0.017 -2.036,-0.006 -3.052,-0.008 -1.019,-0.002 -2.038,-0.001 -3.045,-0.001 -0.234,-0.306 -0.2,-0.655 -0.255,-0.967 C 13.59,28.289 13.131,25.52 12.654,22.752 12.242,20.357 11.815,17.965 11.401,15.569 10.996,13.224 10.652,10.865 10.185,8.532 9.386,4.541 7.013,1.86 3.188,0.489 2.181,0.128 1.123,-0.036 0,0"
               style="fill:#ffffff;fill-opacity:1;fill-rule:nonzero;stroke:none"
               id="path1550" />
          </g>
          <g
             id="g1552"
             transform="translate(449.915,290.1413)"
             style="fill:#ffffff">
            <path
               d="m 0,0 c -0.272,0.125 -0.532,0.165 -0.785,0.226 -1.18,0.279 -2.379,0.366 -3.576,0.214 -1.751,-0.22 -3.201,-1.049 -4.374,-2.361 -1.363,-1.523 -2.233,-3.319 -2.851,-5.248 -0.506,-1.576 -0.701,-3.207 -0.792,-4.851 -0.034,-0.622 -0.044,-1.248 0.085,-1.868 0.214,-1.023 0.64,-1.925 1.605,-2.421 1.474,-0.757 2.993,-0.837 4.492,-0.061 1.099,0.569 1.862,1.499 2.517,2.521 0.887,1.386 1.379,2.936 1.829,4.5 0.581,2.021 0.994,4.08 1.37,6.146 C -0.288,-2.142 -0.158,-1.067 0,0 M 6.978,4.396 C 6.729,3.013 6.497,1.672 6.246,0.334 5.808,-2.007 5.357,-4.345 4.914,-6.685 4.568,-8.509 4.22,-10.332 3.884,-12.157 c -0.101,-0.55 -0.146,-1.108 -0.16,-1.668 -0.048,-1.895 0.031,-3.784 0.302,-5.661 0.094,-0.649 0.249,-1.286 0.471,-1.904 -0.199,-0.121 -0.413,-0.109 -0.595,-0.113 -1.216,-0.021 -2.436,-0.1 -3.649,0.047 -0.473,0.058 -0.863,0.311 -1.181,0.664 -0.355,0.396 -0.619,0.85 -0.814,1.344 -0.06,0.15 -0.123,0.299 -0.177,0.429 -0.18,0.042 -0.237,-0.081 -0.315,-0.152 -1.625,-1.486 -3.524,-2.382 -5.706,-2.708 -1.702,-0.254 -3.386,-0.202 -5.036,0.257 -2.933,0.815 -4.743,2.769 -5.554,5.678 -0.205,0.732 -0.279,1.486 -0.31,2.243 -0.102,2.483 0.127,4.93 0.891,7.305 1.302,4.044 3.611,7.364 7.164,9.751 1.703,1.145 3.598,1.814 5.63,2.112 C -3.5,5.71 -1.843,5.67 -0.18,5.588 0.84,5.537 1.857,5.48 2.87,5.355 4.257,5.186 5.626,4.945 6.978,4.396"
               style="fill:#ffffff;fill-opacity:1;fill-rule:nonzero;stroke:none"
               id="path1554" />
          </g>
          <g
             id="g1556"
             transform="translate(459.6826,270.6267)"
             style="fill:#ffffff">
            <path
               d="M 0,0 C 1.103,1.902 2.173,3.748 3.257,5.616 3.657,5.387 3.934,5.058 4.266,4.799 5.393,3.922 6.593,3.188 8.009,2.889 c 1.513,-0.32 2.975,-0.225 4.313,0.651 1.04,0.682 1.444,1.667 1.353,2.877 -0.032,0.43 -0.263,0.773 -0.547,1.08 -0.476,0.516 -1.061,0.88 -1.672,1.209 -1.42,0.763 -2.844,1.519 -4.257,2.294 -0.917,0.503 -1.717,1.152 -2.364,1.985 -0.899,1.156 -1.274,2.47 -1.228,3.917 0.065,1.949 0.697,3.661 2.083,5.072 0.831,0.844 1.797,1.49 2.858,1.994 1.333,0.634 2.746,0.955 4.214,1.122 2.125,0.242 4.155,-0.147 6.163,-0.765 1.036,-0.319 2.054,-0.69 3.05,-1.121 0.09,-0.039 0.186,-0.062 0.267,-0.182 -0.878,-1.899 -1.834,-3.78 -2.802,-5.666 -0.295,0.117 -0.467,0.321 -0.669,0.481 -0.961,0.759 -1.973,1.433 -3.151,1.803 -1.459,0.458 -2.89,0.402 -4.246,-0.356 -0.545,-0.304 -0.964,-0.73 -1.131,-1.367 -0.178,-0.677 -0.026,-1.273 0.403,-1.801 0.519,-0.637 1.206,-1.062 1.922,-1.439 0.946,-0.495 1.901,-0.975 2.846,-1.471 0.697,-0.367 1.411,-0.709 2.061,-1.16 1.284,-0.893 2.214,-2.044 2.613,-3.587 C 20.28,7.714 20.264,6.957 20.229,6.202 20.146,4.39 19.559,2.764 18.376,1.366 17.355,0.16 16.085,-0.702 14.653,-1.335 13.104,-2.02 11.472,-2.333 9.784,-2.461 6.783,-2.688 3.97,-2.055 1.291,-0.738 0.866,-0.529 0.467,-0.269 0,0"
               style="fill:#ffffff;fill-opacity:1;fill-rule:nonzero;stroke:none"
               id="path1558" />
          </g>
          <g
             id="g1560"
             transform="translate(516.96,293.2087)"
             style="fill:#ffffff">
            <path
               d="m 0,0 c -1.256,-0.716 -2.514,-1.428 -3.768,-2.148 -2.436,-1.403 -4.871,-2.81 -7.307,-4.212 -0.109,-0.063 -0.203,-0.167 -0.431,-0.134 0.858,1.17 1.617,2.357 2.53,3.508 h -11.611 c -0.179,-0.379 -0.219,-0.776 -0.303,-1.155 -0.826,-3.703 -1.64,-7.407 -2.459,-11.111 -0.16,-0.727 -0.244,-1.47 -0.213,-2.204 0.059,-1.373 0.921,-2.117 2.262,-2.294 0.97,-0.128 1.902,0.042 2.814,0.347 0.776,0.259 1.545,0.544 2.317,0.817 0.111,-0.342 0.156,-4.453 0.063,-5.499 -0.09,-0.162 -0.263,-0.187 -0.417,-0.231 -1.109,-0.319 -2.241,-0.512 -3.389,-0.613 -1.164,-0.101 -2.329,-0.192 -3.498,-0.168 -0.991,0.02 -1.971,0.153 -2.882,0.573 -2.124,0.979 -3.327,2.64 -3.679,4.953 -0.244,1.603 0.085,3.138 0.436,4.679 0.745,3.28 1.499,6.557 2.214,9.843 0.145,0.667 0.292,1.341 0.399,2.043 -0.978,0.109 -1.952,-0.076 -2.965,0.147 0.352,1.647 0.697,3.26 1.052,4.924 h 3.047 c 0.35,1.823 0.691,3.605 1.045,5.448 2.306,0.847 4.627,1.7 7.017,2.579 -0.527,-2.697 -1.172,-5.302 -1.765,-7.916 0.413,-0.119 8.849,-0.17 10.262,-0.062 -0.766,0.936 -1.511,1.847 -2.278,2.784 0.245,0.084 0.392,-0.046 0.546,-0.112 C -8.365,3.673 -5.771,2.554 -3.175,1.44 -2.119,0.987 -1.059,0.546 0,0.099"
               style="fill:#ffffff;fill-opacity:1;fill-rule:nonzero;stroke:none"
               id="path1562" />
          </g>
        </g>
      </g>
    </g>
  </g>
</svg>
